<svg width="46" height="46" viewBox="0 0 46 46" fill="none" xmlns="http://www.w3.org/2000/svg">
<g id="quiz">
<path id="Vector" d="M7.66732 11.4997H3.83398V38.333C3.83398 40.4413 5.55898 42.1663 7.66732 42.1663H34.5007V38.333H7.66732V11.4997ZM38.334 3.83301H15.334C13.2257 3.83301 11.5007 5.55801 11.5007 7.66634V30.6663C11.5007 32.7747 13.2257 34.4997 15.334 34.4997H38.334C40.4423 34.4997 42.1673 32.7747 42.1673 30.6663V7.66634C42.1673 5.55801 40.4423 3.83301 38.334 3.83301ZM38.334 30.6663H15.334V7.66634H38.334V30.6663ZM25.8948 19.473C26.6807 18.0738 28.1565 17.2497 29.019 16.023C29.939 14.7197 29.4215 12.3047 26.834 12.3047C25.1473 12.3047 24.304 13.5888 23.959 14.6622L21.3332 13.5697C22.0615 11.423 23.9973 9.58301 26.8148 9.58301C29.1723 9.58301 30.8015 10.6563 31.6257 11.998C32.3348 13.148 32.7373 15.3138 31.6448 16.9238C30.4373 18.7063 29.2873 19.243 28.6548 20.393C28.4057 20.853 28.3098 21.1597 28.3098 22.6547H25.3965C25.4157 21.8688 25.2815 20.5847 25.8948 19.473ZM24.8215 26.7372C24.8215 25.6063 25.7223 24.7438 26.834 24.7438C27.9648 24.7438 28.8273 25.6063 28.8273 26.7372C28.8273 27.8488 27.984 28.7497 26.834 28.7497C25.7223 28.7497 24.8215 27.8488 24.8215 26.7372Z" fill="#8080FF"/>
</g>
</svg>
