<svg width="32" height="32" viewBox="0 0 32 32" fill="none" xmlns="http://www.w3.org/2000/svg">
<g id="api">
<path id="Vector" d="M18.6654 15.9997L15.9987 18.6663L13.332 15.9997L15.9987 13.333L18.6654 15.9997ZM15.9987 7.99967L18.8254 10.8263L22.1587 7.49301L15.9987 1.33301L9.8387 7.49301L13.172 10.8263L15.9987 7.99967ZM7.9987 15.9997L10.8254 13.173L7.49203 9.83967L1.33203 15.9997L7.49203 22.1597L10.8254 18.8263L7.9987 15.9997ZM23.9987 15.9997L21.172 18.8263L24.5054 22.1597L30.6654 15.9997L24.5054 9.83967L21.172 13.173L23.9987 15.9997ZM15.9987 23.9997L13.172 21.173L9.8387 24.5063L15.9987 30.6663L22.1587 24.5063L18.8254 21.173L15.9987 23.9997Z" fill="#00E600"/>
</g>
</svg>
