<svg width="32" height="32" viewBox="0 0 32 32" fill="none" xmlns="http://www.w3.org/2000/svg">
<g id="key">
<path id="Vector" d="M27.9987 13.3333H16.8654C15.772 10.2267 12.812 8 9.33203 8C4.9187 8 1.33203 11.5867 1.33203 16C1.33203 20.4133 4.9187 24 9.33203 24C12.812 24 15.772 21.7733 16.8654 18.6667H17.332L19.9987 21.3333L22.6654 18.6667L25.332 21.3333L30.6654 15.9467L27.9987 13.3333ZM9.33203 20C7.13203 20 5.33203 18.2 5.33203 16C5.33203 13.8 7.13203 12 9.33203 12C11.532 12 13.332 13.8 13.332 16C13.332 18.2 11.532 20 9.33203 20Z" fill="#693AC1"/>
</g>
</svg>
