<svg width="32" height="32" viewBox="0 0 32 32" fill="none" xmlns="http://www.w3.org/2000/svg">
<g id="pending_actions">
<path id="Vector" d="M21.3333 16.6667C17.6533 16.6667 14.6667 19.6533 14.6667 23.3333C14.6667 27.0133 17.6533 30 21.3333 30C25.0133 30 28 27.0133 28 23.3333C28 19.6533 25.0133 16.6667 21.3333 16.6667ZM23.5333 26.4667L20.6667 23.6V19.3333H22V23.0533L24.4667 25.52L23.5333 26.4667ZM22.6667 4.66667H18.4267C17.8667 3.12 16.4 2 14.6667 2C12.9333 2 11.4667 3.12 10.9067 4.66667H6.66667C5.2 4.66667 4 5.86667 4 7.33333V27.3333C4 28.8 5.2 30 6.66667 30H14.8133C14.0267 29.24 13.3867 28.3333 12.92 27.3333H6.66667V7.33333H9.33333V11.3333H20V7.33333H22.6667V14.1067C23.6133 14.24 24.5067 14.52 25.3333 14.9067V7.33333C25.3333 5.86667 24.1333 4.66667 22.6667 4.66667ZM14.6667 7.33333C13.9333 7.33333 13.3333 6.73333 13.3333 6C13.3333 5.26667 13.9333 4.66667 14.6667 4.66667C15.4 4.66667 16 5.26667 16 6C16 6.73333 15.4 7.33333 14.6667 7.33333Z" fill="#0D0DCA"/>
</g>
</svg>
