<svg width="32" height="32" viewBox="0 0 32 32" fill="none" xmlns="http://www.w3.org/2000/svg">
<g id="network_check">
<path id="Vector" d="M21.1987 6.36155C20.972 6.36155 20.772 6.48155 20.652 6.66822L20.5587 6.86822L13.652 22.4016C13.4387 22.7882 13.3054 23.2149 13.3054 23.6816C13.3054 25.1616 14.5054 26.3616 15.9854 26.3616C17.2654 26.3616 18.3454 25.4549 18.5987 24.2416L18.612 24.2016L21.8654 7.02822C21.8654 6.65489 21.572 6.36155 21.1987 6.36155ZM1.33203 11.6949L3.9987 14.3616C7.8387 10.5216 13.052 8.92155 18.0387 9.53489L19.6254 5.96155C13.1854 4.81489 6.3187 6.72155 1.33203 11.6949ZM27.9987 14.3616L30.6654 11.6949C28.4787 9.50822 25.932 7.93489 23.212 6.93489L22.5054 10.6949C24.5054 11.5216 26.372 12.7349 27.9987 14.3616ZM22.6654 19.6949L25.332 17.0282C24.2654 15.9616 23.0654 15.1349 21.7854 14.5082L21.052 18.4016C21.612 18.7616 22.1587 19.1882 22.6654 19.6949ZM6.66536 17.0282L9.33203 19.6949C10.8387 18.1882 12.7454 17.3082 14.7054 17.0282L16.412 13.1882C12.9054 13.0816 9.34536 14.3482 6.66536 17.0282Z" fill="#EA7221"/>
</g>
</svg>
