<svg width="32" height="32" viewBox="0 0 32 32" fill="none" xmlns="http://www.w3.org/2000/svg">
<g id="date_range">
<path id="Vector" d="M9.33333 14.667H12V17.3337H9.33333V14.667ZM28 8.00033V26.667C28 28.1337 26.8 29.3337 25.3333 29.3337H6.66667C5.18667 29.3337 4 28.1337 4 26.667L4.01333 8.00033C4.01333 6.53366 5.18667 5.33366 6.66667 5.33366H8V2.66699H10.6667V5.33366H21.3333V2.66699H24V5.33366H25.3333C26.8 5.33366 28 6.53366 28 8.00033ZM6.66667 10.667H25.3333V8.00033H6.66667V10.667ZM25.3333 26.667V13.3337H6.66667V26.667H25.3333ZM20 17.3337H22.6667V14.667H20V17.3337ZM14.6667 17.3337H17.3333V14.667H14.6667V17.3337Z" fill="#C2C21C"/>
</g>
</svg>
