<svg width="54" height="54" viewBox="0 0 54 54" fill="none" xmlns="http://www.w3.org/2000/svg">
<g id="fax">
<g id="Vector">
<path d="M42.75 19.125H40.5V7.875H18V19.125H16.245C15.0075 17.7525 13.2525 16.875 11.25 16.875C7.515 16.875 4.5 19.89 4.5 23.625V39.375C4.5 43.11 7.515 46.125 11.25 46.125C13.2525 46.125 15.0075 45.2475 16.245 43.875H49.5V25.875C49.5 22.14 46.485 19.125 42.75 19.125ZM13.5 39.375C13.5 40.6125 12.4875 41.625 11.25 41.625C10.0125 41.625 9 40.6125 9 39.375V23.625C9 22.3875 10.0125 21.375 11.25 21.375C12.4875 21.375 13.5 22.3875 13.5 23.625V39.375ZM22.5 12.375H36V19.125H22.5V12.375ZM45 39.375H18V23.625H42.75C43.9875 23.625 45 24.6375 45 25.875V39.375Z" fill="black"/>
<path d="M42.75 19.125H40.5V7.875H18V19.125H16.245C15.0075 17.7525 13.2525 16.875 11.25 16.875C7.515 16.875 4.5 19.89 4.5 23.625V39.375C4.5 43.11 7.515 46.125 11.25 46.125C13.2525 46.125 15.0075 45.2475 16.245 43.875H49.5V25.875C49.5 22.14 46.485 19.125 42.75 19.125ZM13.5 39.375C13.5 40.6125 12.4875 41.625 11.25 41.625C10.0125 41.625 9 40.6125 9 39.375V23.625C9 22.3875 10.0125 21.375 11.25 21.375C12.4875 21.375 13.5 22.3875 13.5 23.625V39.375ZM22.5 12.375H36V19.125H22.5V12.375ZM45 39.375H18V23.625H42.75C43.9875 23.625 45 24.6375 45 25.875V39.375Z" fill="#0267FF"/>
<path d="M33.75 30.375C34.9926 30.375 36 29.3676 36 28.125C36 26.8824 34.9926 25.875 33.75 25.875C32.5074 25.875 31.5 26.8824 31.5 28.125C31.5 29.3676 32.5074 30.375 33.75 30.375Z" fill="black"/>
<path d="M33.75 30.375C34.9926 30.375 36 29.3676 36 28.125C36 26.8824 34.9926 25.875 33.75 25.875C32.5074 25.875 31.5 26.8824 31.5 28.125C31.5 29.3676 32.5074 30.375 33.75 30.375Z" fill="#0267FF"/>
<path d="M40.5 30.375C41.7426 30.375 42.75 29.3676 42.75 28.125C42.75 26.8824 41.7426 25.875 40.5 25.875C39.2574 25.875 38.25 26.8824 38.25 28.125C38.25 29.3676 39.2574 30.375 40.5 30.375Z" fill="black"/>
<path d="M40.5 30.375C41.7426 30.375 42.75 29.3676 42.75 28.125C42.75 26.8824 41.7426 25.875 40.5 25.875C39.2574 25.875 38.25 26.8824 38.25 28.125C38.25 29.3676 39.2574 30.375 40.5 30.375Z" fill="#0267FF"/>
<path d="M33.75 37.125C34.9926 37.125 36 36.1176 36 34.875C36 33.6324 34.9926 32.625 33.75 32.625C32.5074 32.625 31.5 33.6324 31.5 34.875C31.5 36.1176 32.5074 37.125 33.75 37.125Z" fill="black"/>
<path d="M33.75 37.125C34.9926 37.125 36 36.1176 36 34.875C36 33.6324 34.9926 32.625 33.75 32.625C32.5074 32.625 31.5 33.6324 31.5 34.875C31.5 36.1176 32.5074 37.125 33.75 37.125Z" fill="#0267FF"/>
<path d="M40.5 37.125C41.7426 37.125 42.75 36.1176 42.75 34.875C42.75 33.6324 41.7426 32.625 40.5 32.625C39.2574 32.625 38.25 33.6324 38.25 34.875C38.25 36.1176 39.2574 37.125 40.5 37.125Z" fill="black"/>
<path d="M40.5 37.125C41.7426 37.125 42.75 36.1176 42.75 34.875C42.75 33.6324 41.7426 32.625 40.5 32.625C39.2574 32.625 38.25 33.6324 38.25 34.875C38.25 36.1176 39.2574 37.125 40.5 37.125Z" fill="#0267FF"/>
<path d="M29.25 25.875H20.25V37.125H29.25V25.875Z" fill="black"/>
<path d="M29.25 25.875H20.25V37.125H29.25V25.875Z" fill="#0267FF"/>
</g>
</g>
</svg>
