<svg width="54" height="54" viewBox="0 0 54 54" fill="none" xmlns="http://www.w3.org/2000/svg">
<g id="location_on">
<g id="Vector">
<path d="M27 4.5C18.2925 4.5 11.25 11.5425 11.25 20.25C11.25 32.0625 27 49.5 27 49.5C27 49.5 42.75 32.0625 42.75 20.25C42.75 11.5425 35.7075 4.5 27 4.5ZM27 25.875C23.895 25.875 21.375 23.355 21.375 20.25C21.375 17.145 23.895 14.625 27 14.625C30.105 14.625 32.625 17.145 32.625 20.25C32.625 23.355 30.105 25.875 27 25.875Z" fill="black"/>
<path d="M27 4.5C18.2925 4.5 11.25 11.5425 11.25 20.25C11.25 32.0625 27 49.5 27 49.5C27 49.5 42.75 32.0625 42.75 20.25C42.75 11.5425 35.7075 4.5 27 4.5ZM27 25.875C23.895 25.875 21.375 23.355 21.375 20.25C21.375 17.145 23.895 14.625 27 14.625C30.105 14.625 32.625 17.145 32.625 20.25C32.625 23.355 30.105 25.875 27 25.875Z" fill="#0267FF"/>
</g>
</g>
</svg>
