<svg width="54" height="54" viewBox="0 0 54 54" fill="none" xmlns="http://www.w3.org/2000/svg">
<g id="mail">
<g id="Vector">
<path d="M45 9H9C6.525 9 4.5225 11.025 4.5225 13.5L4.5 40.5C4.5 42.975 6.525 45 9 45H45C47.475 45 49.5 42.975 49.5 40.5V13.5C49.5 11.025 47.475 9 45 9ZM45 18L27 29.25L9 18V13.5L27 24.75L45 13.5V18Z" fill="black"/>
<path d="M45 9H9C6.525 9 4.5225 11.025 4.5225 13.5L4.5 40.5C4.5 42.975 6.525 45 9 45H45C47.475 45 49.5 42.975 49.5 40.5V13.5C49.5 11.025 47.475 9 45 9ZM45 18L27 29.25L9 18V13.5L27 24.75L45 13.5V18Z" fill="#0267FF"/>
</g>
</g>
</svg>
