<svg width="441" height="441" viewBox="0 0 441 441" fill="none" xmlns="http://www.w3.org/2000/svg">
<g clip-path="url(#clip0_28_15790)">
<mask id="mask0_28_15790" style="mask-type:luminance" maskUnits="userSpaceOnUse" x="-129" y="-152" width="724" height="727">
<path d="M595 -151.168H-129V575H595V-151.168Z" fill="white"/>
</mask>
<g mask="url(#mask0_28_15790)">
<g opacity="0.540017">
<path d="M249.08 95.5786L235.635 108.485L217.688 97.1904L231.131 84.2843L249.08 95.5786Z" fill="#666666"/>
</g>
<g opacity="0.355324">
<path d="M320.535 81.5399L319.339 95.9048L303.195 98.5789L304.391 84.214L320.535 81.5399Z" fill="#FFA63A"/>
</g>
<g opacity="0.322728">
<path d="M194.964 87.1485L194.24 98.4991L181.544 100.858L182.268 89.5062L194.964 87.1485Z" fill="#3E80FF"/>
</g>
<g opacity="0.581984">
<path d="M306.672 118.929L317.512 122.274L316.848 135.207L306.009 131.863L306.672 118.929Z" fill="#FF3399"/>
</g>
<g opacity="0.288157">
<path d="M103.779 136.879L94.617 143.58L84.6895 135.299L93.8523 128.597L103.779 136.879Z" fill="#FFA63A"/>
</g>
<g opacity="0.687758">
<path d="M-0.0273913 296.66L7.33463 305.311L-0.14053 315.871L-7.50256 307.219L-0.0273913 296.66Z" fill="#3E80FF"/>
</g>
<path d="M28.1281 201.585C26.9498 201.202 25.7732 200.807 24.6746 200.273C21.613 198.784 19.1351 196.126 17.859 192.963C16.0418 188.46 16.5848 183.072 13.8906 179.035C11.5086 175.466 7.14473 173.817 2.96454 172.886C-1.21565 171.955 -5.60219 171.486 -9.34527 169.401C-14.0884 166.759 -17.0821 161.951 -20.1953 157.452" stroke="#FFA63A" stroke-opacity="0.961543" stroke-width="4.829" stroke-miterlimit="10"/>
<path d="M306.07 80.0939C303.574 82.8007 302.24 86.5677 303.258 90.066C304.917 95.7736 311.679 98.3506 317.606 98.3588C319.497 98.3615 321.439 98.1754 323.133 97.3331C326.846 95.4868 328.425 91.0717 329.327 87.0152C331.756 76.099 331.767 64.6483 329.359 53.7276C328.523 49.9416 327.381 46.1719 325.36 42.8669C324.824 41.9891 324.231 41.1531 323.592 40.3525" stroke="#FFB61A" stroke-width="4.829" stroke-miterlimit="10"/>
<path d="M61.0867 201.545C61.055 201.545 61.0233 201.545 60.9916 201.545C56.3834 201.518 51.3199 201.32 47.7198 204.204C43.4401 207.633 43.0355 214.095 44.3903 219.419C45.156 222.427 46.2311 226.024 44.1369 228.312C42.5912 230.001 40.0146 230.092 37.7286 230.11C29.6551 230.177 20.225 231.686 16.3923 238.813C13.2438 244.667 14.5968 253.253 9.02112 256.854C4.03909 260.071 -2.93575 256.667 -8.36213 259.055C-13.3767 261.261 -14.8528 267.084 -17.1406 272.316" stroke="#FF3399" stroke-width="4.829" stroke-miterlimit="10"/>
<path d="M126.719 117.404C127.277 116.189 127.747 114.953 128.002 113.677C128.82 109.585 127.174 105.096 123.909 102.509C118.697 98.3825 109.841 98.6085 107.242 92.4797C104.886 86.9254 109.895 80.5515 108.408 74.7022C107.525 71.2293 104.532 68.7322 101.512 66.8169C95.5952 63.0654 88.2448 59.7622 86.4221 52.9843C86.1162 51.847 85.9958 50.6833 85.9434 49.5078" stroke="#FF3399" stroke-width="4.829" stroke-miterlimit="10"/>
<path d="M189.323 139.745C188.28 139.092 187.268 138.391 186.296 137.644C177.834 131.141 171.789 120.835 172.393 110.16C172.996 99.4863 181.422 89.1911 192.052 88.3859C194.797 88.1781 197.673 88.6065 199.973 90.1233C202.272 91.6401 203.875 94.3805 203.549 97.1217C203.202 100.044 200.861 102.329 198.377 103.894C187.749 110.592 173.515 108.041 162.592 101.836C153.337 96.5789 145.312 88.661 141.381 78.7479C138.14 70.5767 137.842 61.2681 140.552 52.9063C141.502 49.9735 142.898 47.0434 145.334 45.1617C147.387 43.576 149.99 42.8843 152.561 42.5521C153.151 42.4758 153.75 42.4204 154.353 42.3887" stroke="#8678DE" stroke-width="4.829" stroke-miterlimit="10"/>
<path d="M346.125 161.655C346.667 162.451 347.357 163.162 348.101 163.774C352.561 167.444 359.2 167.917 364.42 165.451C369.639 162.985 373.391 157.887 374.835 152.286C375.968 147.895 375.662 142.87 372.861 139.31C371.13 137.112 368.52 135.629 365.75 135.27C362.936 134.905 359.329 136.601 359.657 139.426C359.781 140.504 360.473 141.429 361.237 142.196C365.189 146.164 371.496 147.093 376.879 145.568C382.262 144.044 386.824 140.408 390.627 136.295C394.39 132.228 397.676 127.309 398.039 121.772C398.495 114.848 393.756 107.963 387.192 105.77C384.962 105.024 382.161 105.034 380.282 106.203" stroke="#8678DE" stroke-width="4.829" stroke-miterlimit="10"/>
<path d="M357.111 275.729C358.838 275.653 360.613 275.846 362.316 276.115C365.802 276.664 369.367 277.477 372.815 276.727C376.264 275.978 379.574 273.078 379.394 269.543C379.315 267.979 378.574 266.487 378.626 264.921C378.733 261.666 382.149 259.506 385.342 258.911C388.536 258.318 391.919 258.654 394.95 257.487C398.491 256.123 401.123 252.637 401.472 248.849C401.501 248.539 401.516 248.223 401.523 247.904" stroke="#FF3399" stroke-width="4.829" stroke-miterlimit="10"/>
<path d="M222.404 183.06C223.685 182.56 224.881 181.877 225.937 180.965C229.05 178.28 230.225 173.142 227.907 169.901" stroke="#666666" stroke-width="4.829" stroke-miterlimit="10"/>
</g>
</g>
<defs>
<clipPath id="clip0_28_15790">
<rect width="441" height="441" fill="white"/>
</clipPath>
</defs>
</svg>
