<svg width="25" height="24" viewBox="0 0 25 24" fill="none" xmlns="http://www.w3.org/2000/svg">
<rect width="25" height="24" fill="#1E1E1E"/>
<g id="Register">
<rect width="1440" height="769" transform="translate(-984 -554)" fill="white"/>
<g id="Group 447">
<g id="Frame 82">
<g id="Frame 8">
<g id="Google logo">
<path d="M24.5 12.2658C24.5 11.282 24.4183 10.564 24.2415 9.81948H12.7449V14.26H19.4931C19.3571 15.3636 18.6225 17.0255 16.9898 18.1422L16.9669 18.2909L20.6019 21.0427L20.8537 21.0673C23.1666 18.9799 24.5 15.9087 24.5 12.2658Z" fill="#4285F4"/>
<path d="M12.7449 23.9656C16.051 23.9656 18.8265 22.9019 20.8537 21.0673L16.9898 18.1422C15.9558 18.8469 14.568 19.3388 12.7449 19.3388C9.50682 19.3388 6.75854 17.2515 5.77886 14.3665L5.63526 14.3784L1.85552 17.2369L1.80609 17.3711C3.81968 21.2799 7.95574 23.9656 12.7449 23.9656Z" fill="#34A853"/>
<path d="M5.77886 14.3665C5.52036 13.6219 5.37076 12.8242 5.37076 11.9999C5.37076 11.1755 5.52036 10.3779 5.76526 9.63333L5.75841 9.47477L1.93131 6.57037L1.80609 6.62857C0.976196 8.25061 0.5 10.0721 0.5 11.9999C0.5 13.9277 0.976196 15.7491 1.80609 17.3711L5.77886 14.3665Z" fill="#FBBC05"/>
<path d="M12.7449 4.66089C15.0442 4.66089 16.5952 5.63144 17.4796 6.4425L20.9353 3.14527C18.8129 1.21746 16.051 0.0341797 12.7449 0.0341797C7.95574 0.0341797 3.81968 2.7198 1.80609 6.62857L5.76526 9.63333C6.75855 6.74827 9.50682 4.66089 12.7449 4.66089Z" fill="#EB4335"/>
</g>
<rect x="-30.5" y="-5.5" width="299" height="35" rx="3.5" stroke="#999999"/>
</g>
</g>
</g>
</g>
</svg>
