<svg width="33" height="32" viewBox="0 0 33 32" fill="none" xmlns="http://www.w3.org/2000/svg">
<path id="Facebook" d="M26.4883 0C29.8116 0 32.5 2.68531 32.5 6.00466V25.9953C32.5 29.3147 29.8116 32 26.4883 32H22.605V19.5804H26.7497L27.3471 14.7692H22.605V11.6737C22.605 10.2937 22.9784 9.3613 24.9948 9.3613L27.5338 9.32401V5.03496C27.0858 4.96037 25.5548 4.84848 23.7999 4.84848C20.1406 4.84848 17.6015 7.08625 17.6015 11.2261V14.7692H13.4195V19.5804H17.6015V32H6.51167C3.18845 32 0.5 29.3147 0.5 25.9953V6.00466C0.5 2.68531 3.18845 0 6.51167 0H26.4883Z" fill="#808080"/>
</svg>
