<svg width="33" height="32" viewBox="0 0 33 32" fill="none" xmlns="http://www.w3.org/2000/svg">
<path id="Linkedin" d="M7.66269 32H1.02845V10.6357H7.66269V32ZM4.342 7.72143C2.22104 7.72143 0.5 5.96429 0.5 3.84286C0.5 1.72143 2.22104 0 4.342 0C6.46295 0 8.184 1.72143 8.184 3.84286C8.184 5.96429 6.46295 7.72143 4.342 7.72143ZM32.4929 32H25.8729V21.6C25.8729 19.1214 25.8229 15.9429 22.4237 15.9429C18.9744 15.9429 18.446 18.6357 18.446 21.4214V32H11.8189V10.6357H18.1818V13.55H18.2746C19.1601 11.8714 21.3239 10.1 24.5518 10.1C31.2646 10.1 32.5 14.5214 32.5 20.2643V32H32.4929Z" fill="#808080"/>
</svg>
