<svg width="33" height="32" viewBox="0 0 33 32" fill="none" xmlns="http://www.w3.org/2000/svg">
<g id="Group">
<g id="Group_2">
<path id="Vector" fill-rule="evenodd" clip-rule="evenodd" d="M16.5001 0C7.66461 0 0.5 7.34466 0.5 16.405C0.5 23.6533 5.0845 29.8026 11.4419 31.9718C12.2415 32.1236 12.5351 31.6159 12.5351 31.1826C12.5351 30.7915 12.5202 29.4991 12.5134 28.1283C8.06202 29.1207 7.12276 26.1927 7.12276 26.1927C6.39495 24.2965 5.34626 23.7924 5.34626 23.7924C3.89464 22.7742 5.45568 22.795 5.45568 22.795C7.0624 22.9108 7.90843 24.4856 7.90843 24.4856C9.33545 26.9936 11.6514 26.2685 12.5645 25.8494C12.708 24.789 13.1227 24.0654 13.5803 23.6558C10.0265 23.2408 6.29054 21.8342 6.29054 15.5483C6.29054 13.7573 6.91559 12.2938 7.93917 11.1449C7.77303 10.7317 7.22541 9.0632 8.09415 6.80351C8.09415 6.80351 9.43772 6.36259 12.4953 8.48512C13.7715 8.12152 15.1403 7.93934 16.5001 7.93316C17.8598 7.93934 19.2296 8.12152 20.5083 8.48512C23.5623 6.36259 24.904 6.80351 24.904 6.80351C25.7748 9.0632 25.227 10.7317 25.0608 11.1449C26.0867 12.2938 26.7075 13.7572 26.7075 15.5483C26.7075 21.8491 22.9645 23.2366 19.4017 23.6426C19.9755 24.1518 20.4869 25.1502 20.4869 26.6806C20.4869 28.8756 20.4683 30.6422 20.4683 31.1826C20.4683 31.6192 20.7563 32.1307 21.5674 31.9696C27.9213 29.798 32.5 23.6509 32.5 16.405C32.5 7.34466 25.3364 0 16.5001 0Z" fill="#808080"/>
<path id="Vector_2" d="M6.49968 23.365C6.46479 23.4467 6.34046 23.4713 6.22746 23.4152C6.11222 23.3615 6.04744 23.25 6.08481 23.1679C6.11908 23.0838 6.24341 23.0603 6.3584 23.1168C6.47389 23.1704 6.53967 23.2829 6.49968 23.365ZM7.28106 24.0874C7.20531 24.1602 7.05718 24.1263 6.95664 24.0113C6.85274 23.8966 6.83331 23.7432 6.91018 23.6693C6.98829 23.5966 7.13193 23.6305 7.23608 23.7454C7.33999 23.8615 7.36029 24.0138 7.28106 24.0874ZM7.81714 25.0116C7.71971 25.0817 7.5605 25.016 7.4622 24.8696C7.3649 24.7233 7.3649 24.5478 7.46432 24.4774C7.56299 24.4071 7.71971 24.4703 7.81938 24.6156C7.91655 24.7644 7.91668 24.9398 7.81714 25.0116ZM8.7236 26.0821C8.63652 26.1814 8.45114 26.1549 8.31534 26.0191C8.17656 25.8864 8.13781 25.698 8.22515 25.5985C8.31323 25.4989 8.49973 25.5269 8.63652 25.6615C8.77443 25.7939 8.81642 25.9837 8.7236 26.0821ZM9.89518 26.4435C9.85693 26.5723 9.67828 26.6309 9.49838 26.5762C9.31873 26.5198 9.20113 26.3687 9.23738 26.2385C9.27476 26.1088 9.45415 26.0477 9.63542 26.1063C9.81482 26.1625 9.93255 26.3123 9.89518 26.4435ZM11.2287 26.5967C11.2332 26.7325 11.0806 26.8451 10.8917 26.8475C10.7017 26.8518 10.5481 26.7419 10.5461 26.6084C10.5461 26.4714 10.6952 26.3598 10.8851 26.3566C11.074 26.3527 11.2287 26.4618 11.2287 26.5967ZM12.5386 26.5447C12.5612 26.6771 12.4299 26.8132 12.2424 26.8493C12.0581 26.8842 11.8874 26.8025 11.8638 26.6712C11.8409 26.5354 11.9747 26.3995 12.1587 26.3642C12.3466 26.3304 12.5147 26.41 12.5386 26.5447Z" fill="#8D8D8D"/>
</g>
</g>
</svg>
